<svg id="icon-checkbox-blank" xmlns="http://www.w3.org/2000/svg" viewBox="0 0 24 24">
	<path d="M19 5v14H5V5h14m0-2H5c-1.1 0-2 .9-2 2v14c0 1.1.9 2 2 2h14c1.1 0 2-.9 2-2V5c0-1.1-.9-2-2-2z"/>
</svg>

<svg id="icon-checkbox-checked" xmlns="http://www.w3.org/2000/svg" viewBox="0 0 24 24">
	<path d="M19 3H5c-1.11 0-2 .9-2 2v14c0 1.1.89 2 2 2h14c1.11 0 2-.9 2-2V5c0-1.1-.89-2-2-2zm-9 14l-5-5 1.41-1.41L10 14.17l7.59-7.59L19 8l-9 9z"/>
</svg>

<svg id="icon-tabs-close" xmlns="http://www.w3.org/2000/svg" viewBox="0 0 24 24">
	<path d="M19 6.41L17.59 5 12 10.59 6.41 5 5 6.41 10.59 12 5 17.59 6.41 19 12 13.41 17.59 19 19 17.59 13.41 12z"/>
</svg>

<svg id="icon-copy" xmlns="http://www.w3.org/2000/svg" viewBox="0 0 24 24">
	<path d="M16 1H4c-1.1 0-2 .9-2 2v14h2V3h12V1zm3 4H8c-1.1 0-2 .9-2 2v14c0 1.1.9 2 2 2h11c1.1 0 2-.9 2-2V7c0-1.1-.9-2-2-2zm0 16H8V7h11v14z"/>
</svg>

<svg id="icon-delete" xmlns="http://www.w3.org/2000/svg" viewBox="0 0 24 24">
	<path d="M6 19c0 1.1.9 2 2 2h8c1.1 0 2-.9 2-2V7H6v12zM19 4h-3.5l-1-1h-5l-1 1H5v2h14V4z"/>
</svg>

<svg id="icon-download" xmlns="http://www.w3.org/2000/svg" viewBox="0 0 24 24">
	<path d="M19 9h-4V3H9v6H5l7 7 7-7zM5 18v2h14v-2H5z"/>
</svg>

<svg id="icon-drag" xmlns="http://www.w3.org/2000/svg" viewBox="0 0 24 24">
	<path d="M11 18c0 1.1-.9 2-2 2s-2-.9-2-2 .9-2 2-2 2 .9 2 2zm-2-8c-1.1 0-2 .9-2 2s.9 2 2 2 2-.9 2-2-.9-2-2-2zm0-6c-1.1 0-2 .9-2 2s.9 2 2 2 2-.9 2-2-.9-2-2-2zm6 4c1.1 0 2-.9 2-2s-.9-2-2-2-2 .9-2 2 .9 2 2 2zm0 2c-1.1 0-2 .9-2 2s.9 2 2 2 2-.9 2-2-.9-2-2-2zm0 6c-1.1 0-2 .9-2 2s.9 2 2 2 2-.9 2-2-.9-2-2-2z"/>
</svg>

<svg id="icon-export" xmlns="http://www.w3.org/2000/svg" viewBox="0 0 24 24">
	<path d="M19 12v7H5v-7H3v7c0 1.1.9 2 2 2h14c1.1 0 2-.9 2-2v-7h-2zm-6 .67l2.59-2.58L17 11.5l-5 5-5-5 1.41-1.41L11 12.67V3h2z"/>
</svg>

<svg id="icon-filter" xmlns="http://www.w3.org/2000/svg" viewBox="0 0 24 24">
	<path d="M10 18h4v-2h-4v2zM3 6v2h18V6H3zm3 7h12v-2H6v2z"/>
</svg>

<svg id="icon-menu" xmlns="http://www.w3.org/2000/svg" viewBox="0 0 24 24">
	<path d="M3 18h18v-2H3v2zm0-5h18v-2H3v2zm0-7v2h18V6H3z"/>
</svg>

<svg id="icon-reload" xmlns="http://www.w3.org/2000/svg" viewBox="0 0 24 24">
	<path d="M19 8l-4 4h3c0 3.31-2.69 6-6 6-1.01 0-1.97-.25-2.8-.7l-1.46 1.46C8.97 19.54 10.43 20 12 20c4.42 0 8-3.58 8-8h3l-4-4zM6 12c0-3.31 2.69-6 6-6 1.01 0 1.97.25 2.8.7l1.46-1.46C15.03 4.46 13.57 4 12 4c-4.42 0-8 3.58-8 8H1l4 4 4-4H6z"/>
</svg>

<svg id="icon-show-all" xmlns="http://www.w3.org/2000/svg" viewBox="0 0 24 24">
	<path d="M6 10c-1.1 0-2 .9-2 2s.9 2 2 2 2-.9 2-2-.9-2-2-2zm12 0c-1.1 0-2 .9-2 2s.9 2 2 2 2-.9 2-2-.9-2-2-2zm-6 0c-1.1 0-2 .9-2 2s.9 2 2 2 2-.9 2-2-.9-2-2-2z"/>
</svg>

<svg id="icon-tabs-single" xmlns="http://www.w3.org/2000/svg" viewBox="0 0 24 24">
	<path d="M19 4H5c-1.11 0-2 .9-2 2v12c0 1.1.89 2 2 2h14c1.1 0 2-.9 2-2V6c0-1.1-.89-2-2-2zm0 14H5V8h14v10z"/>
</svg>

<svg id="icon-tabs-all" xmlns="http://www.w3.org/2000/svg" viewBox="0 0 24 24">
	<path d="M4,12H2v7c0,1.1,0.9,2,2,2h9v-2H4V12z"/>
	<path d="M8,8H6v7c0,1.1,0.9,2,2,2h9v-2H8V8z"/>
	<path d="M20,3h-8c-1.1,0-2,0.9-2,2v6c0,1.1,0.9,2,2,2h8c1.1,0,2-0.9,2-2V5C22,3.9,21.1,3,20,3z M20,11h-8V7h8V11z"/>
</svg>

<svg id="icon-create" xmlns="http://www.w3.org/2000/svg" viewBox="0 0 24 24">
	<path d="M19 13h-6v6h-2v-6H5v-2h6V5h2v6h6v2z"/>
</svg>

<svg id="icon-upload" xmlns="http://www.w3.org/2000/svg" viewBox="0 0 24 24">
	<path d="M5 4v2h14V4H5zm0 10h4v6h6v-6h4l-7-7-7 7z"/>
</svg>

<svg id="icon-search" xmlns="http://www.w3.org/2000/svg" viewBox="0 0 24 24">
	<path d="M15.5 14h-.79l-.28-.27C15.41 12.59 16 11.11 16 9.5 16 5.91 13.09 3 9.5 3S3 5.91 3 9.5 5.91 16 9.5 16c1.61 0 3.09-.59 4.23-1.57l.27.28v.79l5 4.99L20.49 19l-4.99-5zm-6 0C7.01 14 5 11.99 5 9.5S7.01 5 9.5 5 14 7.01 14 9.5 11.99 14 9.5 14z"/>
</svg>

<svg id="icon-open" xmlns="http://www.w3.org/2000/svg" viewBox="0 0 24 24">
	<path d="M19 19H5V5h7V3H5c-1.11 0-2 .9-2 2v14c0 1.1.89 2 2 2h14c1.1 0 2-.9 2-2v-7h-2v7zM14 3v2h3.59l-9.83 9.83 1.41 1.41L19 6.41V10h2V3h-7z"/>
</svg>

<svg id="icon-edit" xmlns="http://www.w3.org/2000/svg" viewBox="0 0 24 24">
	<path d="M3 17.25V21h3.75L17.81 9.94l-3.75-3.75L3 17.25zM20.71 7.04c.39-.39.39-1.02 0-1.41l-2.34-2.34c-.39-.39-1.02-.39-1.41 0l-1.83 1.83 3.75 3.75 1.83-1.83z"/>
</svg>

<svg id="icon-text" xmlns="http://www.w3.org/2000/svg" viewBox="0 0 24 24">
	<path d="M5 4v3h5.5v12h3V7H19V4z"/>
</svg>

<svg id="icon-info" xmlns="http://www.w3.org/2000/svg" viewBox="0 0 24 24">
	<path d="M12 2C6.48 2 2 6.48 2 12s4.48 10 10 10 10-4.48 10-10S17.52 2 12 2zm1 15h-2v-6h2v6zm0-8h-2V7h2v2z"/>
</svg>

<svg id="icon-caret-right" xmlns="http://www.w3.org/2000/svg" viewBox="0 0 24 24">
	<path d="M8.59 16.59L13.17 12 8.59 7.41 10 6l6 6-6 6-1.41-1.41z"/>
</svg>
